<svg xmlns="http://www.w3.org/2000/svg" viewBox="0 0 800 800" role="img" aria-labelledby="title desc">
  <title id="title">Muted calm water placeholder</title>
  <desc id="desc">A soft misty waterscape with gentle ripples and a quiet horizon.</desc>
  <defs>
    <linearGradient id="sky" x1="0%" y1="0%" x2="0%" y2="100%">
      <stop offset="0%" stop-color="#f4efe8" />
      <stop offset="48%" stop-color="#d9d8d2" />
      <stop offset="100%" stop-color="#b7c6cf" />
    </linearGradient>
    <linearGradient id="water" x1="0%" y1="0%" x2="0%" y2="100%">
      <stop offset="0%" stop-color="#b8c8d2" />
      <stop offset="100%" stop-color="#7f9ba7" />
    </linearGradient>
    <filter id="blur" x="-20%" y="-20%" width="140%" height="140%">
      <feGaussianBlur stdDeviation="18" />
    </filter>
  </defs>
  <rect width="800" height="800" fill="url(#sky)" />
  <ellipse cx="400" cy="270" rx="260" ry="84" fill="#ffffff" opacity="0.36" filter="url(#blur)" />
  <ellipse cx="400" cy="330" rx="330" ry="96" fill="#ffffff" opacity="0.16" filter="url(#blur)" />
  <path d="M0 360C135 335 238 326 400 326c169 0 285 11 400 34v440H0Z" fill="url(#water)" />
  <path d="M0 414c139 22 265 32 400 32 142 0 266-11 400-34" fill="none" stroke="#dfe8ec" stroke-opacity="0.82" stroke-width="8" />
  <path d="M0 476c116 18 252 26 400 26 149 0 284-8 400-28" fill="none" stroke="#eef4f6" stroke-opacity="0.58" stroke-width="6" />
  <path d="M0 540c138 20 264 28 400 28 146 0 278-10 400-30" fill="none" stroke="#dae5e9" stroke-opacity="0.52" stroke-width="5" />
  <path d="M0 614c145 18 272 25 400 25 132 0 266-8 400-25" fill="none" stroke="#f4f8fa" stroke-opacity="0.44" stroke-width="4" />
  <ellipse cx="400" cy="360" rx="310" ry="18" fill="#e8eef1" opacity="0.48" filter="url(#blur)" />
</svg>
